<svg width="747" height="235" viewBox="0 0 747 235" fill="none" xmlns="http://www.w3.org/2000/svg">
<path d="M173.036 29.4847L135.469 204.001L188.063 29.4847H173.036Z" fill="#DD063A"/>
<path d="M170.532 221.532L208.099 29.4846H223.126L246.634 127.501L273.728 93.6333L245.04 145.829L216.352 42.2346L170.532 221.532Z" fill="#DD063A"/>
<path d="M337.99 29.4846L300.423 221.532L346.244 42.2346L372.939 161.766L375.33 131.485L353.017 29.4846H337.99Z" fill="#DD063A"/>
<path d="M295.756 29.4846L258.189 221.532L310.782 29.4846H295.756Z" fill="#DD063A"/>
<path d="M525.257 29.4846L487.689 221.532L540.283 29.4846H525.257Z" fill="#DD063A"/>
<path d="M577.851 29.4846L540.283 221.532L592.877 29.4846H577.851Z" fill="#DD063A"/>
<path d="M407.319 29.4846L369.752 221.532L422.345 29.4846H407.319Z" fill="#DD063A"/>
<path d="M412.783 212.368L490.877 201.61L425.931 202.805L459.799 20.7188L412.783 212.368Z" fill="#DD063A"/>
<path d="M83.6721 234.282L153.462 24.7031L109.843 216.817H746.675L83.6721 234.282Z" fill="#DD063A"/>
<path d="M663.003 0.000152588L593.213 209.579L636.832 17.4651L7.78303e-05 17.465L663.003 0.000152588Z" fill="#DD063A"/>
</svg>
